<?xml version="1.0" encoding="UTF-8"?>
<svg width="9px" height="10px" viewBox="0 0 9 10" version="1.1" xmlns="http://www.w3.org/2000/svg" xmlns:xlink="http://www.w3.org/1999/xlink">
    <!-- Generator: Sketch 52.6 (67491) - http://www.bohemiancoding.com/sketch -->
    <title>Artboard Copy</title>
    <desc>Created with Sketch.</desc>
    <g id="Artboard-Copy" stroke="none" stroke-width="1" fill="none" fill-rule="evenodd">
        <rect id="Rectangle" fill="#FFFFFF" x="1" y="5" width="2" height="5"></rect>
        <rect id="Rectangle" fill="#FFFFFF" x="6" y="2" width="1" height="3"></rect>
        <rect id="Rectangle" fill="#FFFFFF" x="0" y="6" width="1" height="1"></rect>
        <rect id="Rectangle-Copy" fill="#FFFFFF" x="3" y="3" width="4" height="3"></rect>
        <rect id="Rectangle-Copy-7" fill="#FFFFFF" x="6" y="0" width="1" height="1"></rect>
        <rect id="Rectangle-Copy-2" fill="#FFFFFF" x="4" y="2" width="1" height="2"></rect>
        <rect id="Rectangle-Copy-4" fill="#FFFFFF" x="6" y="4" width="1" height="1"></rect>
        <rect id="Rectangle-Copy-5" fill="#FFFFFF" x="6" y="5" width="2" height="5"></rect>
        <rect id="Rectangle-Copy-6" fill="#FFFFFF" x="8" y="6" width="1" height="1"></rect>
        <rect id="Rectangle" fill="#FFFFFF" x="2" y="4" width="5" height="2"></rect>
        <path d="M4,10 L4,8 L3,8 L3,10 L2,10 L2,5 L7,5 L7,10 L4,10 Z M5,7 L5,8 L6,8 L6,7 L5,7 Z" id="Combined-Shape" fill="#FFFFFF"></path>
    </g>
</svg>