<?xml version="1.0" encoding="UTF-8"?>
<svg width="9px" height="10px" viewBox="0 0 9 10" version="1.1" xmlns="http://www.w3.org/2000/svg" xmlns:xlink="http://www.w3.org/1999/xlink">
    <!-- Generator: Sketch 52.6 (67491) - http://www.bohemiancoding.com/sketch -->
    <title>Artboard Copy</title>
    <desc>Created with Sketch.</desc>
    <g id="Artboard-Copy" stroke="none" stroke-width="1" fill="none" fill-rule="evenodd">
        <path d="M3,4 L3,3 L4,3 L4,2 L5,2 L5,3 L6,3 L6,2 L7,2 L7,5 L8,5 L8,6 L9,6 L9,7 L8,7 L8,10 L6,10 L6,6 L3,6 L3,10 L1,10 L1,7 L0,7 L0,6 L1,6 L1,5 L2,5 L2,4 L3,4 Z M6,0 L7,0 L7,1 L6,1 L6,0 Z" id="Combined-Shape" fill="#FFFFFF"></path>
        <path d="M4,10 L4,8 L3,8 L3,10 L2,10 L2,5 L7,5 L7,10 L4,10 Z M5,7 L5,8 L6,8 L6,7 L5,7 Z" id="Combined-Shape" fill="#FFFFFF"></path>
    </g>
</svg>